# xmcd
#
# Track frame offsets: 
#        150
#        11883
#        49034
#
# Disc length: 1200 seconds
#
# Revision: 3
# Processed by: cddbd v1.5.2PL0 Copyright (c) Steve Scherf et al.
# Submitted via: ExactAudioCopy v1.3
#
DISCID=1e04ae03
DTITLE=3 Of A Kind - Baby Cakes
DYEAR=2004
DGENRE=Electronic
TTITLE0=Baby Cakes (Radio Edit)
TTITLE1=Baby Cakes (Qualifide Remix)
TTITLE2=Data
EXTD=YEAR: 2004
EXTT0=
EXTT1=
EXTT2=
PLAYORDER=
